# xmcd
#
# Track frame offsets:
#	150
#	19725
#	40230
#	60382
#	77802
#	99285
#	121000
#	138847
#	159515
#	178942
#	200382
#	219037
#	238060
#	264900
#
# Disc length: 3844 seconds
#
# Revision: 1
# Processed by: cddbd v1.5.1PL0 Copyright (c) Steve Scherf et al.
# Submitted via: CDex 1.50Beta5
#
DISCID=ac0f020e
DTITLE=門倉有希 - ベストアルバム
DYEAR=1998
DGENRE=World
TTITLE0=ノラ
TTITLE1=ナザレの舟唄
TTITLE2=硝子の海峡
TTITLE3=鴎…カモメ
TTITLE4=姫女苑
TTITLE5=どん底
TTITLE6=嘆き節はやめにして
TTITLE7=女の漁歌
TTITLE8=ひまわり
TTITLE9=北の駅
TTITLE10=女の望郷歌
TTITLE11=すずらん通り
TTITLE12=どうせ東京の片隅に
TTITLE13=いつか母の子守唄
EXTD=
EXTT0=
EXTT1=
EXTT2=
EXTT3=
EXTT4=
EXTT5=
EXTT6=
EXTT7=
EXTT8=
EXTT9=
EXTT10=
EXTT11=
EXTT12=
EXTT13=
PLAYORDER=
